<?xml version='1.0' encoding='UTF-8'?>
<!DOCTYPE svg PUBLIC "-//W3C//DTD SVG 1.1//EN" "http://www.w3.org/Graphics/SVG/1.1/DTD/svg11.dtd">
<svg xmlns:xlink="http://www.w3.org/1999/xlink" xmlns="http://www.w3.org/2000/svg" width="460.8pt" height="374.4pt" viewBox="0 0 460.8 374.4" version="1.1">
 <metadata>
  <rdf:RDF xmlns:dc="http://purl.org/dc/elements/1.1/" xmlns:cc="http://creativecommons.org/ns#" xmlns:rdf="http://www.w3.org/1999/02/22-rdf-syntax-ns#">
   <cc:Work>
    <dc:type rdf:resource="http://purl.org/dc/dcmitype/StillImage"/>
    <dc:date>2026-07-31T22:28:13.415565</dc:date>
    <dc:format>image/svg+xml</dc:format>
    <dc:creator>
     <cc:Agent>
      <dc:title>Matplotlib v3.11.0, https://matplotlib.org/</dc:title>
     </cc:Agent>
    </dc:creator>
   </cc:Work>
  </rdf:RDF>
 </metadata>
 <defs>
  <style type="text/css">*{stroke-linejoin: round; stroke-linecap: butt}</style>
 </defs>
 <defs>
  <clipPath id="p9f4d59619f">
   <rect x="13.824" y="7.488" width="433.152" height="351.936"/>
  </clipPath>
 </defs>
<g id="panel_A">
   <g id="panel_A_axis"><desc>axis objects for panel A</desc></g><g id="panel_A_data"><desc>data objects for panel A</desc><g id="data__A_source_box_0">
    <path d="M 28.118016 131.369472  L 86.160384 131.369472  Q 92.657664 131.369472 92.657664 126.090432  L 92.657664 78.931008  Q 92.657664 73.651968 86.160384 73.651968  L 28.118016 73.651968  Q 21.620736 73.651968 21.620736 78.931008  L 21.620736 126.090432  Q 21.620736 131.369472 28.118016 131.369472  z " clip-path="url(#p9f4d59619f)" style="fill: #e8ebef; stroke: #5b6573; stroke-width: 1.2; stroke-linejoin: miter"/>
   </g>
   <g id="data__A_source_arrow_0">
    <path d="M 92.058061 102.51072  Q 100.020898 102.51072 106.753898 102.51072  " clip-path="url(#p9f4d59619f)" style="fill: none; stroke: #5b6573; stroke-width: 1.1; stroke-linecap: round"/>
    <path d="M 101.953898 100.11072  L 106.753898 102.51072  L 101.953898 104.91072  z " clip-path="url(#p9f4d59619f)" style="fill: #5b6573; stroke: #5b6573; stroke-width: 1.1; stroke-linecap: round"/>
   </g>
   <g id="data__A_source_box_1">
    <path d="M 114.748416 131.369472  L 185.785344 131.369472  Q 192.282624 131.369472 192.282624 126.090432  L 192.282624 78.931008  Q 192.282624 73.651968 185.785344 73.651968  L 114.748416 73.651968  Q 108.251136 73.651968 108.251136 78.931008  L 108.251136 126.090432  Q 108.251136 131.369472 114.748416 131.369472  z " clip-path="url(#p9f4d59619f)" style="fill: #d7e8f5; stroke: #173f5f; stroke-width: 1.2; stroke-linejoin: miter"/>
   </g>
   <g id="data__A_source_arrow_1">
    <path d="M 191.683022 102.51072  Q 199.645858 102.51072 206.378858 102.51072  " clip-path="url(#p9f4d59619f)" style="fill: none; stroke: #5b6573; stroke-width: 1.1; stroke-linecap: round"/>
    <path d="M 201.578858 100.11072  L 206.378858 102.51072  L 201.578858 104.91072  z " clip-path="url(#p9f4d59619f)" style="fill: #5b6573; stroke: #5b6573; stroke-width: 1.1; stroke-linecap: round"/>
   </g>
   <g id="data__A_source_box_2">
    <path d="M 214.373376 131.369472  L 272.415744 131.369472  Q 278.913024 131.369472 278.913024 126.090432  L 278.913024 78.931008  Q 278.913024 73.651968 272.415744 73.651968  L 214.373376 73.651968  Q 207.876096 73.651968 207.876096 78.931008  L 207.876096 126.090432  Q 207.876096 131.369472 214.373376 131.369472  z " clip-path="url(#p9f4d59619f)" style="fill: #f3eac9; stroke: #876a13; stroke-width: 1.2; stroke-linejoin: miter"/>
   </g>
   <g id="data__A_source_arrow_2">
    <path d="M 278.312787 102.51072  Q 288.440483 102.51072 297.338342 102.51072  " clip-path="url(#p9f4d59619f)" style="fill: none; stroke: #5b6573; stroke-width: 1.1; stroke-linecap: round"/>
    <path d="M 292.538342 100.11072  L 297.338342 102.51072  L 292.538342 104.91072  z " clip-path="url(#p9f4d59619f)" style="fill: #5b6573; stroke: #5b6573; stroke-width: 1.1; stroke-linecap: round"/>
   </g>
   <g id="data__A_source_box_3">
    <path d="M 305.335296 131.369472  L 372.040704 131.369472  Q 378.537984 131.369472 378.537984 126.090432  L 378.537984 78.931008  Q 378.537984 73.651968 372.040704 73.651968  L 305.335296 73.651968  Q 298.838016 73.651968 298.838016 78.931008  L 298.838016 126.090432  Q 298.838016 131.369472 305.335296 131.369472  z " clip-path="url(#p9f4d59619f)" style="fill: #d7f0eb; stroke: #2a9d8f; stroke-width: 1.2; stroke-linejoin: miter"/>
   </g>
   <g id="data__A_source_arrow_3">
    <path d="M 377.937959 102.51072  Q 381.567651 102.51072 383.967506 102.51072  " clip-path="url(#p9f4d59619f)" style="fill: none; stroke: #5b6573; stroke-width: 1.1; stroke-linecap: round"/>
    <path d="M 379.167506 100.11072  L 383.967506 102.51072  L 379.167506 104.91072  z " clip-path="url(#p9f4d59619f)" style="fill: #5b6573; stroke: #5b6573; stroke-width: 1.1; stroke-linecap: round"/>
   </g>
   <g id="data__A_source_box_4">
    <path d="M 391.965696 131.369472  L 432.681984 131.369472  Q 439.179264 131.369472 439.179264 126.090432  L 439.179264 78.931008  Q 439.179264 73.651968 432.681984 73.651968  L 391.965696 73.651968  Q 385.468416 73.651968 385.468416 78.931008  L 385.468416 126.090432  Q 385.468416 131.369472 391.965696 131.369472  z " clip-path="url(#p9f4d59619f)" style="fill: #f8ded7; stroke: #e76f51; stroke-width: 1.2; stroke-linejoin: miter"/>
   </g>
   <g id="data__A_audit_box_0">
    <path d="M 32.882688 272.847744  L 116.047872 272.847744  Q 123.844608 272.847744 123.844608 266.512896  L 123.844608 198.941184  Q 123.844608 192.606336 116.047872 192.606336  L 32.882688 192.606336  Q 25.085952 192.606336 25.085952 198.941184  L 25.085952 266.512896  Q 25.085952 272.847744 32.882688 272.847744  z " clip-path="url(#p9f4d59619f)" style="fill: #d7e8f5; stroke: #173f5f; stroke-width: 1.4; stroke-linejoin: miter"/>
   </g>
   <g id="data__A_audit_arrow_0">
    <path d="M 121.94777 232.72704  Q 125.793487 232.72704 128.409367 232.72704  " clip-path="url(#p9f4d59619f)" style="fill: none; stroke: #5b6573; stroke-width: 1.1; stroke-linecap: round"/>
    <path d="M 123.609367 230.32704  L 128.409367 232.72704  L 123.609367 235.12704  z " clip-path="url(#p9f4d59619f)" style="fill: #5b6573; stroke: #5b6573; stroke-width: 1.1; stroke-linecap: round"/>
   </g>
   <g id="data__A_audit_box_1">
    <path d="M 136.839168 272.847744  L 220.004352 272.847744  Q 227.801088 272.847744 227.801088 266.512896  L 227.801088 198.941184  Q 227.801088 192.606336 220.004352 192.606336  L 136.839168 192.606336  Q 129.042432 192.606336 129.042432 198.941184  L 129.042432 266.512896  Q 129.042432 272.847744 136.839168 272.847744  z " clip-path="url(#p9f4d59619f)" style="fill: #e1edf7; stroke: #2878b5; stroke-width: 1.4; stroke-linejoin: miter"/>
   </g>
   <g id="data__A_audit_arrow_1">
    <path d="M 225.90425 232.72704  Q 229.749967 232.72704 232.365847 232.72704  " clip-path="url(#p9f4d59619f)" style="fill: none; stroke: #5b6573; stroke-width: 1.1; stroke-linecap: round"/>
    <path d="M 227.565847 230.32704  L 232.365847 232.72704  L 227.565847 235.12704  z " clip-path="url(#p9f4d59619f)" style="fill: #5b6573; stroke: #5b6573; stroke-width: 1.1; stroke-linecap: round"/>
   </g>
   <g id="data__A_audit_box_2">
    <path d="M 240.795648 272.847744  L 323.960832 272.847744  Q 331.757568 272.847744 331.757568 266.512896  L 331.757568 198.941184  Q 331.757568 192.606336 323.960832 192.606336  L 240.795648 192.606336  Q 232.998912 192.606336 232.998912 198.941184  L 232.998912 266.512896  Q 232.998912 272.847744 240.795648 272.847744  z " clip-path="url(#p9f4d59619f)" style="fill: #d7f0eb; stroke: #2a9d8f; stroke-width: 1.4; stroke-linejoin: miter"/>
   </g>
   <g id="data__A_audit_arrow_2">
    <path d="M 329.86073 232.72704  Q 333.706447 232.72704 336.322327 232.72704  " clip-path="url(#p9f4d59619f)" style="fill: none; stroke: #5b6573; stroke-width: 1.1; stroke-linecap: round"/>
    <path d="M 331.522327 230.32704  L 336.322327 232.72704  L 331.522327 235.12704  z " clip-path="url(#p9f4d59619f)" style="fill: #5b6573; stroke: #5b6573; stroke-width: 1.1; stroke-linecap: round"/>
   </g>
   <g id="data__A_audit_box_3">
    <path d="M 344.752128 272.847744  L 427.917312 272.847744  Q 435.714048 272.847744 435.714048 266.512896  L 435.714048 198.941184  Q 435.714048 192.606336 427.917312 192.606336  L 344.752128 192.606336  Q 336.955392 192.606336 336.955392 198.941184  L 336.955392 266.512896  Q 336.955392 272.847744 344.752128 272.847744  z " clip-path="url(#p9f4d59619f)" style="fill: #f8ded7; stroke: #e76f51; stroke-width: 1.4; stroke-linejoin: miter"/>
   </g>
   </g><g id="panel_A_labels"><desc>labels objects for panel A</desc><g id="labels__A_title">
    <text style="font-weight: 700; font-size: 15px; font-family: 'Arial', 'DejaVu Sans', sans-serif; text-anchor: start; fill: #1e2933" x="22.48704" y="32.48585" transform="rotate(-0 22.48704 32.48585)">Medication exposure is a joint provenance operator</text>
   </g>
   <g id="labels__A_subtitle">
    <text style="font-size: 10px; font-family: 'Arial', 'DejaVu Sans', sans-serif; text-anchor: start; fill: #5b6573" x="22.48704" y="49.961873" transform="rotate(-0 22.48704 49.961873)">A source becomes exposure only after identity, time, semantics, and required metadata are resolved</text>
   </g>
   <g id="labels__A_source_label_0">
    <text style="font-weight: 700; font-size: 9.5px; font-family: 'Arial', 'DejaVu Sans', sans-serif; fill: #1e2933" transform="translate(34.438653 99.799416)">Treatment</text>
    <text style="font-weight: 700; font-size: 9.5px; font-family: 'Arial', 'DejaVu Sans', sans-serif; fill: #1e2933" transform="translate(44.21252 110.139016)">intent</text>
   </g>
   <g id="labels__A_source_label_1">
    <text style="font-weight: 700; font-size: 9.5px; font-family: 'Arial', 'DejaVu Sans', sans-serif; fill: #1e2933" transform="translate(117.534927 99.799416)">Provider order</text>
    <text style="font-weight: 700; font-size: 9.5px; font-family: 'Arial', 'DejaVu Sans', sans-serif; fill: #1e2933" transform="translate(107.37438 110.139016)">POE + prescription</text>
   </g>
   <g id="labels__A_source_label_2">
    <text style="font-weight: 700; font-size: 9.5px; font-family: 'Arial', 'DejaVu Sans', sans-serif; fill: #1e2933" transform="translate(220.686591 99.799324)">Pharmacy</text>
    <text style="font-weight: 700; font-size: 9.5px; font-family: 'Arial', 'DejaVu Sans', sans-serif; fill: #1e2933" transform="translate(222.811474 110.139109)">workflow</text>
   </g>
   <g id="labels__A_source_label_3">
    <text style="font-weight: 700; font-size: 9.5px; font-family: 'Arial', 'DejaVu Sans', sans-serif; fill: #1e2933" transform="translate(309.923039 99.799416)">Documented</text>
    <text style="font-weight: 700; font-size: 9.5px; font-family: 'Arial', 'DejaVu Sans', sans-serif; fill: #1e2933" transform="translate(303.326477 110.139016)">eMAR workflow</text>
   </g>
   <g id="labels__A_source_label_4">
    <text style="font-weight: 700; font-size: 9.5px; font-family: 'Arial', 'DejaVu Sans', sans-serif; fill: #1e2933" transform="translate(393.847082 99.799324)">Analytic</text>
    <text style="font-weight: 700; font-size: 9.5px; font-family: 'Arial', 'DejaVu Sans', sans-serif; fill: #1e2933" transform="translate(391.205637 110.139109)">exposure</text>
   </g>
   <g id="labels__A_audit_heading">
    <text style="font-weight: 700; font-size: 11.2px; font-family: 'Arial', 'DejaVu Sans', sans-serif; text-anchor: start; fill: #173f5f" x="22.48704" y="168.757528" transform="rotate(-0 22.48704 168.757528)">Exposure operator = observable source × identity × time × event semantics × dose/route</text>
   </g>
   <g id="labels__A_audit_heading_0">
    <text style="font-weight: 700; font-size: 9.5px; font-family: 'Arial', 'DejaVu Sans', sans-serif; text-anchor: middle; fill: #173f5f" x="74.46528" y="219.348416" transform="rotate(-0 74.46528 219.348416)">1  OBSERVE</text>
   </g>
   <g id="labels__A_audit_body_0">
    <text style="font-size: 8.6px; font-family: 'Arial', 'DejaVu Sans', sans-serif; fill: #1e2933" transform="translate(35.988343 242.826185)">Is the administration</text>
    <text style="font-size: 8.6px; font-family: 'Arial', 'DejaVu Sans', sans-serif; fill: #1e2933" transform="translate(44.587671 252.516134)">layer available?</text>
   </g>
   <g id="labels__A_audit_heading_1">
    <text style="font-weight: 700; font-size: 9.5px; font-family: 'Arial', 'DejaVu Sans', sans-serif; text-anchor: middle; fill: #2878b5" x="178.42176" y="219.348416" transform="rotate(-0 178.42176 219.348416)">2  LINK</text>
   </g>
   <g id="labels__A_audit_body_1">
    <text style="font-size: 8.6px; font-family: 'Arial', 'DejaVu Sans', sans-serif; fill: #1e2933" transform="translate(116.760432 241.97156)">Which drug and record identities</text>
    <text style="font-size: 8.6px; font-family: 'Arial', 'DejaVu Sans', sans-serif; fill: #1e2933" transform="translate(151.171182 252.566525)">are accepted?</text>
   </g>
   <g id="labels__A_audit_heading_2">
    <text style="font-weight: 700; font-size: 9.5px; font-family: 'Arial', 'DejaVu Sans', sans-serif; text-anchor: middle; fill: #2a9d8f" x="282.37824" y="219.348416" transform="rotate(-0 282.37824 219.348416)">3  INTERPRET</text>
   </g>
   <g id="labels__A_audit_body_2">
    <text style="font-size: 8.6px; font-family: 'Arial', 'DejaVu Sans', sans-serif; fill: #1e2933" transform="translate(236.495896 242.267857)">Which time, event state,</text>
    <text style="font-size: 8.6px; font-family: 'Arial', 'DejaVu Sans', sans-serif; fill: #1e2933" transform="translate(229.312881 252.516134)">and dose/route rules apply?</text>
   </g>
   <g id="labels__A_audit_heading_3">
    <text style="font-weight: 700; font-size: 9.5px; font-family: 'Arial', 'DejaVu Sans', sans-serif; text-anchor: middle; fill: #e76f51" x="386.33472" y="219.348416" transform="rotate(-0 386.33472 219.348416)">4  PROPAGATE</text>
   </g>
   <g id="labels__A_audit_body_3">
    <text style="font-size: 8.6px; font-family: 'Arial', 'DejaVu Sans', sans-serif; fill: #1e2933" transform="translate(327.533564 241.97156)">How does the operator change</text>
    <text style="font-size: 8.6px; font-family: 'Arial', 'DejaVu Sans', sans-serif; fill: #1e2933" transform="translate(331.605126 253.370759)">classification and estimates?</text>
   </g>
   </g><g id="panel_A_legend"><desc>legend objects for panel A</desc></g><g id="panel_A_annotations"><desc>annotations objects for panel A</desc><g id="annotations__A_output">
    <text style="font-weight: 700; font-size: 10.5px; font-family: 'Arial', 'DejaVu Sans', sans-serif; text-anchor: middle; fill: #e76f51" x="230.4" y="326.947685" transform="rotate(-0 230.4 326.947685)">Discordant provenance cells transmit operator choices to cohort composition and estimates</text>
   </g>
  </g></g>
 </svg>